<svg width="27" height="38" viewBox="0 0 27 38" fill="none" xmlns="http://www.w3.org/2000/svg">
<path d="M4 2C4 10.5194 5.22878 19.6086 7.1788 27.9048C7.65782 29.9427 7.94757 33.7233 9.16555 35.4603C9.50865 35.9496 12.4473 31.5969 12.7417 31.1429C16.0696 26.0095 17.3307 19.6723 19.894 14.1429C22.1841 9.20278 13.9567 16.1433 12.7417 17.381C11.796 18.3443 8.68179 20.7417 8.7682 22.2381C8.95226 25.4256 18.9089 28.2126 21.4834 29.5238C24.4243 31.0217 27.2652 32.445 22.2781 33.7513C19.3477 34.5189 16.3483 35.0452 13.5364 36" stroke="url(#paint0_linear)" stroke-width="2.5" stroke-linecap="round" stroke-linejoin="round"/>
<path d="M1 1C1 9.51944 2.22878 18.6086 4.1788 26.9048C4.65782 28.9427 4.94757 32.7233 6.16555 34.4603C6.50865 34.9496 9.44735 30.5969 9.74169 30.1429C13.0696 25.0095 14.3307 18.6723 16.894 13.1429C19.1841 8.20278 10.9567 15.1433 9.74169 16.381C8.79603 17.3443 5.68179 19.7417 5.7682 21.2381C5.95226 24.4256 15.9089 27.2126 18.4834 28.5238C21.4243 30.0217 24.2652 31.445 19.2781 32.7513C16.3477 33.5189 13.3483 34.0452 10.5364 35" stroke="black" stroke-linecap="round" stroke-linejoin="round"/>
<defs>
<linearGradient id="paint0_linear" x1="14.5" y1="2" x2="14.5" y2="36" gradientUnits="userSpaceOnUse">
<stop stop-color="#9BEDFF" stop-opacity="0.16"/>
<stop offset="0.489183" stop-color="#BEE3DB"/>
<stop offset="0.99963" stop-color="#89B0AE"/>
</linearGradient>
</defs>
</svg>
