<svg width="229" height="228" viewBox="0 0 229 228" fill="none" xmlns="http://www.w3.org/2000/svg">
<path d="M186 15C162 12.6 68.6667 7.33333 25 5C15.5 15.5 16 15 16 30C16 45 25 55 16 85C7 115 16 120 16 135V175V209C28.6667 211.667 56.2 217 65 217C76 217 199 218 208 217C217 216 205 186 208 168C211 150 215 125 216 90C217 55 223 61 222 40C221 19 216 18 186 15Z" fill="url(#paint0_linear)"/>
<path d="M132.033 158.686C120.63 156.04 116.021 158.643 115.141 160.275C108.938 171.186 107.306 170.307 100.959 179.683C94.6114 189.059 95.7493 195.665 102.741 198.622C109.732 201.58 157.493 187.791 164.178 181.998C170.863 176.205 146.287 161.992 132.033 158.686Z" fill="white" fill-opacity="0.77"/>
<path d="M87.9998 120C81.1998 134 103.5 146.167 115.5 150.5C118.5 151.663 120 144.5 123 135.5C126 126.5 128 127.5 130.5 120C133 112.5 137.5 110 141 95C143.8 83 136.833 80.6667 133 81C120.833 88.1667 94.7998 106 87.9998 120Z" fill="white" fill-opacity="0.77"/>
<path d="M62 29C62 71.8478 68.2024 117.561 78.0454 159.286C80.4633 169.535 81.9259 188.55 88.0737 197.286C89.8055 199.747 104.639 177.855 106.125 175.571C122.923 149.753 129.288 117.881 142.227 90.0714C153.786 65.2258 112.258 100.132 106.125 106.357C101.351 111.202 85.6319 123.26 86.068 130.786C86.9971 146.817 137.254 160.834 150.249 167.429C165.094 174.962 179.434 182.121 154.261 188.69C139.47 192.551 124.329 195.198 110.136 200" stroke="black" stroke-linecap="round" stroke-linejoin="round"/>
<path d="M15 12.6804C24.0585 14.1336 32.7082 12.6804 41.7943 12.6804C49.9153 12.6804 57.7219 13.5759 65.8596 13.5759C82.912 13.5759 99.9645 13.5759 117.017 13.5759C133.495 13.5759 149.986 12.6804 166.338 12.6804C175.121 12.6804 183.904 12.6804 192.686 12.6804C196.53 12.6804 209.318 10.7575 212.583 13.3769C216.635 16.6266 215.957 25.907 215.957 31.4856C215.957 38.2774 215.064 44.7974 215.064 51.6339C215.064 59.0666 215.957 66.314 215.957 73.623C215.957 80.2037 215.064 86.5783 215.064 93.2738C215.064 131.224 214.171 169.133 214.171 207" stroke="black" stroke-linecap="round" stroke-linejoin="round"/>
<path d="M14.1553 13C14.1553 25.5681 16 38.0039 16 50.7518C16 58.1366 16 65.5214 16 72.9062C16 82.5182 14.1553 92.0025 14.1553 101.518C14.1553 123.636 13.2329 145.949 13.2329 168.18C13.2329 178.976 13.2329 189.771 13.2329 200.567C13.2329 203.316 13.2329 206.064 13.2329 208.813C13.2329 210.327 12.3044 215.975 14.1553 213.283" stroke="black" stroke-linecap="round" stroke-linejoin="round"/>
<path d="M12 213.791C16.3699 213.791 20.4416 213 24.5752 213C28.5593 213 32.2533 213.791 36.2522 213.791C40.2743 213.791 44.0082 214.581 47.9791 214.581C52.1397 214.581 57.6122 213.754 61.6023 214.757C69.9321 216.852 80.5984 215.372 89.2478 215.372C99.4277 215.372 109.608 215.372 119.788 215.372C128.105 215.372 136.421 215.372 144.738 215.372C153.233 215.372 161.641 216.896 170.088 215.196C178.038 213.597 187.044 214.581 195.239 214.581C201.723 214.581 208.386 213.791 215 213.791" stroke="black" stroke-linecap="round" stroke-linejoin="round"/>
<path d="M215 207C215 209 215 211 215 213" stroke="black" stroke-linecap="round" stroke-linejoin="round"/>
<defs>
<linearGradient id="paint0_linear" x1="117.056" y1="5" x2="117.056" y2="217.444" gradientUnits="userSpaceOnUse">
<stop stop-color="#BEE3DB" stop-opacity="0.6"/>
<stop offset="1" stop-color="#9BEDFF" stop-opacity="0.16"/>
</linearGradient>
</defs>
</svg>
