<svg width="211" height="213" viewBox="0 0 211 213" fill="none" xmlns="http://www.w3.org/2000/svg">
<path d="M174 10C150 7.6 56.6667 2.33333 13 0C3.5 10.5 4 10 4 25C4 40 13 50 4 80C-5 110 4 115 4 130V170V204C16.6667 206.667 44.2 212 53 212C64 212 187 213 196 212C205 211 193 181 196 163C199 145 203 120 204 85C205 50 211 56 210 35C209 14 204 13 174 10Z" fill="url(#paint0_linear)"/>
<path d="M50 24C50 66.8478 56.2024 112.561 66.0454 154.286C68.4633 164.535 69.9259 183.55 76.0737 192.286C77.8055 194.747 92.639 172.855 94.1247 170.571C110.923 144.753 117.288 112.881 130.227 85.0714C141.786 60.2258 100.258 95.1322 94.1247 101.357C89.3514 106.202 73.6319 118.26 74.068 125.786C74.9971 141.817 125.254 155.834 138.249 162.429C153.094 169.962 167.434 177.121 142.261 183.69C127.47 187.551 112.329 190.198 98.1361 195" stroke="white" stroke-width="10" stroke-linecap="round" stroke-linejoin="round"/>
<defs>
<linearGradient id="paint0_linear" x1="105.056" y1="0" x2="105.056" y2="212.444" gradientUnits="userSpaceOnUse">
<stop stop-color="#BEE3DB" stop-opacity="0.6"/>
<stop offset="1" stop-color="#9BEDFF" stop-opacity="0.16"/>
</linearGradient>
</defs>
</svg>
