<svg width="129" height="54" viewBox="0 0 129 54" fill="none" xmlns="http://www.w3.org/2000/svg">
<g filter="url(#filter0_f)">
<path d="M46 43H88V43C88 46.866 84.866 50 81 50H53C49.134 50 46 46.866 46 43V43Z" fill="#E5E5E5"/>
</g>
<path d="M62.9636 7.92606C63.3511 5.59792 65.3855 4.69254 66.3542 4.53086C67 3.88415 68.9698 2.68775 71.6822 3.07577C75.0727 3.5608 72.6509 4.53086 72.6509 5.50092C72.6509 6.47097 69.2604 7.92606 70.7135 8.41109C72.1666 8.89612 76.5258 9.86618 75.5571 11.3213C74.5884 12.7764 69.2604 10.8362 72.6509 16.6566C76.0415 22.4769 80.4007 19.5668 80.4008 21.0218C80.4008 22.4769 77.4946 25.3871 77.0102 26.8422C76.5258 28.2973 76.5258 31.2075 76.5258 32.1775C76.5258 33.1476 77.4946 33.1476 78.9477 35.0877C80.4007 37.0278 84.76 35.5727 85.7288 37.0278C86.6975 38.4829 84.76 40.908 84.76 42.8481C84.76 44.7883 84.2757 45.7583 83.3069 46.7284C82.3382 47.6984 71.6822 45.7583 70.2291 45.7583C68.776 45.7583 63.9324 43.8182 58.6044 44.3032C53.2764 44.7883 50.3702 42.8481 48.9171 42.8481C47.464 42.8481 47.9484 37.9979 48.9171 37.0278C49.8858 36.0577 55.6982 35.5727 56.1826 33.6326C56.6669 31.6925 58.6044 28.2973 58.6044 26.3572C58.6044 24.417 56.6669 24.9021 55.6982 23.932C54.7295 22.962 52.792 20.0518 54.2451 18.5967C55.6982 17.1416 60.0575 15.6865 61.0262 13.7464C61.9949 11.8063 63.9324 11.8063 63.9324 10.8362C63.9324 9.86618 62.4793 10.8362 62.9636 7.92606Z" fill="url(#paint0_linear)"/>
<path d="M51.6019 34.5149C53.6827 33.5823 61.4058 34.1264 65.0073 34.5149C74.0109 33.9321 83.6147 37.6236 86.2158 40.1493C88.8168 42.6751 84.215 44.2294 83.0145 45.5894C81.814 46.9495 77.6123 46.5609 71.6099 46.9495C65.6075 47.338 55.4034 45.3951 51.6019 44.2294C47.8003 43.0637 47 39.7608 47 38.595C47 37.4293 49.0008 35.6807 51.6019 34.5149Z" stroke="black"/>
<path d="M55.792 26.9185C56.3986 24.4748 60.9316 24.0336 63.1222 24.1184C68.683 23.1917 76.0132 27.9367 77.5298 30.2277C79.0464 32.5186 76.7715 35.8278 72.4745 36.846C68.1775 37.8642 58.3197 33.5369 56.2975 32.5186C54.2754 31.5004 55.0337 29.9731 55.792 26.9185Z" stroke="black"/>
<path d="M53.2858 20C54.0743 17.9692 58.7066 17.1538 60.9242 17C64.3738 17 72.0614 17.2308 75.2153 18.1538C79.1577 19.3077 79.1577 22.3077 78.9113 24.1538C78.6649 26 73.7369 26 71.2729 26H62.8954C60.185 26 57.9674 25.0769 55.9962 24.1538C54.025 23.2308 52.3002 22.5385 53.2858 20Z" stroke="black"/>
<path d="M64.938 12C64.7748 12.0182 64.5845 12.0495 64.3784 12.0958M64.3784 12.0958C63.2628 12.346 61.6853 13.0338 61.4498 14.4542C61.101 16.5578 60.0545 17.9602 63.1939 18.6614C66.3333 19.3626 71.5655 19.012 71.9143 17.259C72.2632 15.506 71.5655 12 69.4726 12C67.7983 12 65.3788 12.0638 64.3784 12.0958Z" stroke="black"/>
<path d="M57 13.0838C57 12.3508 60.4093 10.7932 62.114 10.106C63.8186 9.36859 68.6891 9.64788 70.1502 9.18976C71.6114 8.73164 74.5336 9.18976 75.5077 9.64788C76.4818 10.106 75.7512 11.4804 75.5077 12.1675C75.2642 12.8547 73.0725 13.0838 71.3678 13.0838C69.6632 13.0838 64.0622 14 62.114 14C60.1658 14 57 14 57 13.0838Z" stroke="black"/>
<path d="M60.054 7.338C59.4577 6.56724 63.9467 3.32362 66.2657 1.79815C69.0178 -0.128754 74.4651 1.79815 73.9682 3.72505C73.4712 5.65196 70.9866 7.338 66.2657 8.54232C61.5448 9.74663 60.7994 8.30145 60.054 7.338Z" stroke="black"/>
<rect x="38" y="43" width="12" height="1" fill="black"/>
<rect x="86" y="43" width="10" height="1" fill="black"/>
<rect x="107" y="43" width="12" height="1" fill="black"/>
<rect x="124" y="43" width="5" height="1" fill="black"/>
<rect x="29" y="43" width="6" height="1" fill="black"/>
<rect y="43" width="26" height="1" fill="black"/>
<defs>
<filter id="filter0_f" x="42" y="39" width="50" height="15" filterUnits="userSpaceOnUse" color-interpolation-filters="sRGB">
<feFlood flood-opacity="0" result="BackgroundImageFix"/>
<feBlend mode="normal" in="SourceGraphic" in2="BackgroundImageFix" result="shape"/>
<feGaussianBlur stdDeviation="2" result="effect1_foregroundBlur"/>
</filter>
<linearGradient id="paint0_linear" x1="67" y1="3" x2="67" y2="47" gradientUnits="userSpaceOnUse">
<stop stop-color="#BEE3DB" stop-opacity="0"/>
<stop offset="0.23396" stop-color="#9BEDFF" stop-opacity="0.16"/>
<stop offset="1" stop-color="#BEE3DB"/>
</linearGradient>
</defs>
</svg>
